Coordinates
version=1
nRows=37
nColumns=38
inDegrees=no

Units are S.I. units (second, meters, Newtons, ...)
If the header above contains a line with 'inDegrees', this indicates whether rotational values are in degrees (yes) or radians (no).

endheader
time	pelvis_tilt	pelvis_list	pelvis_rotation	pelvis_tx	pelvis_ty	pelvis_tz	hip_flexion_r	hip_adduction_r	hip_rotation_r	knee_angle_r	ankle_angle_r	subtalar_angle_r	mtp_angle_r	hip_flexion_l	hip_adduction_l	hip_rotation_l	knee_angle_l	ankle_angle_l	subtalar_angle_l	mtp_angle_l	lumbar_extension	lumbar_bending	lumbar_rotation	arm_flex_r	arm_add_r	arm_rot_r	elbow_flex_r	pro_sup_r	wrist_flex_r	wrist_dev_r	arm_flex_l	arm_add_l	arm_rot_l	elbow_flex_l	pro_sup_l	wrist_flex_l	wrist_dev_l
1.73	-2.60907	1.44131	-2.14579	0.67232	1.46383	0.952655	-0.302026	-0.0521799	-0.224507	0.164192	0.23634	0	0	0.323397	0.0304495	-0.29667	0.237593	0.0857267	0	0	-0.185037	-0.0414643	0.0418213	0.0715405	-0.196337	0.215553	0.520409	1.13696	0	0	-0.234731	-0.168134	0.235215	0.648994	0.92499	0	0
1.74	-2.58073	1.44335	-2.17511	0.671498	1.47456	0.950622	-0.307143	-0.0581852	-0.233214	0.172775	0.247512	0	0	0.311442	0.0446461	-0.286328	0.167899	0.0838723	0	0	-0.181672	-0.0432499	0.0411354	0.0743131	-0.194889	0.20927	0.520181	1.14685	0	0	-0.239108	-0.164742	0.235593	0.644095	0.921799	0	0
1.75	-2.56144	1.44582	-2.19583	0.670738	1.48547	0.948531	-0.312349	-0.0628577	-0.241017	0.181798	0.257817	0	0	0.298793	0.0564552	-0.26886	0.101688	0.078903	0	0	-0.178378	-0.0437161	0.0412785	0.0762306	-0.19406	0.204241	0.52068	1.1559	0	0	-0.24337	-0.161743	0.237242	0.639188	0.919116	0	0
1.76	-2.54995	1.44838	-2.21009	0.670125	1.49656	0.946404	-0.317408	-0.0668764	-0.247738	0.192135	0.267705	0	0	0.28636	0.0651731	-0.247885	0.0424788	0.0719598	0	0	-0.175258	-0.0435295	0.0429644	0.0775021	-0.194121	0.202171	0.521582	1.16333	0	0	-0.247439	-0.158866	0.239166	0.634571	0.91625	0	0
1.77	-2.54783	1.45182	-2.21573	0.669656	1.50774	0.944218	-0.322724	-0.0689669	-0.250478	0.201248	0.275139	0	0	0.282262	0.068436	-0.238337	0.0066727	0.0740682	0	0	-0.171957	-0.0421824	0.0454087	0.0784559	-0.194216	0.201311	0.522564	1.16649	0	0	-0.251778	-0.156352	0.240961	0.631066	0.914082	0	0
1.78	-2.53834	1.45359	-2.23097	0.669325	1.51903	0.942075	-0.323725	-0.0760076	-0.261417	0.221603	0.287975	0	0	0.282514	0.0708734	-0.236919	0	0.0795316	0	0	-0.16937	-0.0431674	0.0497524	0.0785958	-0.195684	0.208302	0.525963	1.15263	0	0	-0.256106	-0.15633	0.25098	0.629686	0.89443	0	0
1.79	-2.54321	1.45464	-2.23174	0.669167	1.53042	0.940157	-0.33016	-0.0796861	-0.261393	0.23296	0.293127	0	0	0.290037	0.0692378	-0.246669	0	0.0901959	0	0	-0.16873	-0.0436682	0.05402	0.0792736	-0.194581	0.2055	0.526055	1.15867	0	0	-0.259921	-0.155282	0.253828	0.62672	0.893027	0	0
1.8	-2.54515	1.4543	-2.23661	0.669139	1.5419	0.93837	-0.335259	-0.0859456	-0.262629	0.249059	0.299275	0	0	0.303349	0.0657295	-0.264782	0.0224383	0.0991323	0	0	-0.169007	-0.0458427	0.0595381	0.0793866	-0.193085	0.202389	0.526337	1.16392	0	0	-0.263293	-0.155397	0.258408	0.624341	0.890069	0	0
1.81	-2.54422	1.45351	-2.2452	0.669219	1.55356	0.936649	-0.338793	-0.0937953	-0.263735	0.268547	0.305422	0	0	0.321911	0.059553	-0.288588	0.0667537	0.106167	0	0	-0.16899	-0.0490249	0.0660517	0.0786625	-0.191285	0.199145	0.526424	1.16863	0	0	-0.266735	-0.156505	0.264231	0.622727	0.88539	0	0
1.82	-2.54045	1.45298	-2.25772	0.669402	1.5655	0.934917	-0.340624	-0.102664	-0.263912	0.290489	0.310656	0	0	0.34145	0.0514326	-0.310167	0.118547	0.111114	0	0	-0.16765	-0.052629	0.0738204	0.0766869	-0.189742	0.195959	0.52654	1.17411	0	0	-0.270768	-0.158103	0.270168	0.621704	0.879319	0	0
1.83	-2.53056	1.45265	-2.27749	0.669634	1.57781	0.933166	-0.341038	-0.11274	-0.262559	0.313871	0.314227	0	0	0.359296	0.0430457	-0.325669	0.171852	0.115013	0	0	-0.16447	-0.0568194	0.0830656	0.0729752	-0.188079	0.191605	0.526559	1.1802	0	0	-0.275628	-0.160043	0.275856	0.621087	0.872389	0	0
1.84	-2.51586	1.45242	-2.30288	0.669825	1.59048	0.931438	-0.339915	-0.124175	-0.259592	0.339133	0.316101	0	0	0.374899	0.0352674	-0.336359	0.224543	0.118182	0	0	-0.159737	-0.0614648	0.0930136	0.0678484	-0.186357	0.18673	0.526377	1.18613	0	0	-0.281471	-0.162316	0.281478	0.621231	0.864918	0	0
1.85	-2.49737	1.45279	-2.33313	0.669947	1.60353	0.929655	-0.336621	-0.136653	-0.254883	0.366797	0.316376	0	0	0.387861	0.0282957	-0.343579	0.273158	0.123431	0	0	-0.152885	-0.0658466	0.103748	0.0613233	-0.185276	0.182953	0.526247	1.19149	0	0	-0.288414	-0.164328	0.286429	0.621634	0.857147	0	0
1.86	-2.45907	1.45597	-2.38382	0.66992	1.61685	0.927487	-0.325293	-0.151197	-0.252312	0.40285	0.317343	0	0	0.40382	0.0211854	-0.350392	0.320651	0.132009	0	0	-0.140436	-0.0692568	0.115611	0.0521092	-0.186094	0.183963	0.528401	1.18616	0	0	-0.296855	-0.168893	0.302364	0.625821	0.820711	0	0
1.87	-2.43824	1.45548	-2.41473	0.669609	1.63052	0.925946	-0.321608	-0.164545	-0.244335	0.431569	0.31097	0	0	0.40838	0.0204703	-0.347934	0.35044	0.12732	0	0	-0.132141	-0.0734188	0.123736	0.0443235	-0.185257	0.180447	0.526656	1.19281	0	0	-0.305218	-0.169508	0.301788	0.625158	0.818164	0	0
1.88	-2.40467	1.4551	-2.45643	0.668938	1.64413	0.924479	-0.312727	-0.179766	-0.238335	0.467505	0.301842	0	0	0.414763	0.0214667	-0.345415	0.37766	0.108863	0	0	-0.122706	-0.0781985	0.129427	0.0365141	-0.184581	0.178407	0.524348	1.19795	0	0	-0.313703	-0.170465	0.300935	0.625589	0.815185	0	0
1.89	-2.36295	1.45333	-2.50241	0.667852	1.65747	0.923415	-0.300515	-0.196258	-0.234228	0.509141	0.28718	0	0	0.422394	0.0250271	-0.339491	0.405217	0.0826169	0	0	-0.11457	-0.0846387	0.130834	0.0295032	-0.183609	0.17582	0.521376	1.20334	0	0	-0.320966	-0.172496	0.301035	0.626844	0.811603	0	0
1.9	-2.31523	1.44985	-2.55013	0.666408	1.67044	0.922891	-0.284617	-0.213636	-0.230741	0.556574	0.26551	0	0	0.432291	0.0310881	-0.329646	0.438456	0.0649482	0	0	-0.108422	-0.0929674	0.128118	0.0231584	-0.181478	0.170886	0.518132	1.20854	0	0	-0.325641	-0.17568	0.303237	0.627773	0.806726	0	0
1.91	-2.2895	1.45943	-2.57389	0.665066	1.68388	0.921486	-0.25864	-0.215662	-0.22066	0.609794	0.235589	0	0	0.47541	-0.00390807	-0.377996	0.542584	0.0823793	0	0	-0.094745	-0.0867206	0.126149	0.0105126	-0.182255	0.162266	0.521696	1.21972	0	0	-0.331687	-0.179979	0.316379	0.63121	0.786578	0	0
1.92	-2.23773	1.45467	-2.62101	0.663482	1.6966	0.921735	-0.235114	-0.231703	-0.212739	0.666572	0.197926	0	0	0.482671	0.00536719	-0.364879	0.573322	0.0790704	0	0	-0.0899285	-0.0959724	0.121304	0.00147701	-0.179253	0.154265	0.521544	1.22025	0	0	-0.331533	-0.186259	0.326378	0.63061	0.779642	0	0
1.93	-2.18319	1.45049	-2.67065	0.661973	1.70925	0.922029	-0.205899	-0.246797	-0.201657	0.728293	0.15457	0	0	0.487161	0.0144158	-0.356371	0.596869	0.0717359	0	0	-0.0837815	-0.104964	0.117576	-0.0095864	-0.176357	0.145219	0.523543	1.21979	0	0	-0.330465	-0.195635	0.343648	0.632721	0.769478	0	0
1.94	-2.13248	1.44636	-2.71686	0.660574	1.72175	0.922347	-0.172733	-0.260524	-0.18741	0.792937	0.106466	0	0	0.486979	0.0228855	-0.354262	0.611975	0.0617377	0	0	-0.0772649	-0.113709	0.115816	-0.0225036	-0.174652	0.13893	0.528714	1.21075	0	0	-0.32868	-0.213432	0.387958	0.646157	0.703406	0	0
1.95	-2.08847	1.44263	-2.75657	0.659185	1.73398	0.922778	-0.136984	-0.271835	-0.170496	0.857908	0.0545243	0	0	0.481786	0.0306661	-0.357875	0.619203	0.054699	0	0	-0.0716926	-0.121279	0.11326	-0.0344568	-0.174448	0.138486	0.534603	1.19941	0	0	-0.32675	-0.22262	0.399157	0.651335	0.701997	0	0
1.96	-2.05008	1.43866	-2.79009	0.657713	1.74596	0.923298	-0.100203	-0.282049	-0.154202	0.92163	0.000130111	0	0	0.472614	0.0388869	-0.365061	0.621227	0.0547462	0	0	-0.0669071	-0.1284	0.110411	-0.045886	-0.173185	0.132136	0.538997	1.19905	0	0	-0.323909	-0.232583	0.4128	0.659066	0.684482	0	0
1.97	-2.01766	1.43432	-2.81664	0.656115	1.75769	0.923925	-0.0639043	-0.291383	-0.13946	0.982385	-0.0554451	0	0	0.460602	0.0482787	-0.372627	0.61982	0.0613762	0	0	-0.0632472	-0.135285	0.105588	-0.0556093	-0.171815	0.12719	0.54137	1.19988	0	0	-0.321284	-0.238712	0.411376	0.664076	0.692645	0	0
1.98	-1.99574	1.42958	-2.83123	0.654466	1.76922	0.924791	-0.029994	-0.299961	-0.127324	1.03891	-0.112603	0	0	0.445961	0.059104	-0.377599	0.615917	0.0706566	0	0	-0.0613279	-0.142202	0.0983159	-0.0634739	-0.17087	0.126081	0.541749	1.19647	0	0	-0.318711	-0.247006	0.413985	0.673005	0.6904	0	0
1.99	-1.98518	1.42457	-2.83313	0.652742	1.78054	0.926048	0.000583913	-0.307531	-0.116968	1.08967	-0.17107	0	0	0.429084	0.0715999	-0.377896	0.609748	0.0784362	0	0	-0.0615868	-0.148655	0.0887986	-0.0691173	-0.169757	0.126263	0.539297	1.19496	0	0	-0.314854	-0.253678	0.412976	0.679221	0.690364	0	0
2	-1.98517	1.41892	-2.82311	0.650973	1.79171	0.927777	0.0268667	-0.314342	-0.108756	1.13362	-0.230122	0	0	0.409767	0.0865132	-0.372067	0.601009	0.0838032	0	0	-0.0639686	-0.155242	0.077442	-0.0728619	-0.168075	0.127357	0.533476	1.19384	0	0	-0.31033	-0.259362	0.408616	0.684643	0.692055	0	0
2.01	-1.99457	1.41405	-2.80195	0.649211	1.80278	0.929911	0.0489545	-0.318703	-0.103391	1.17138	-0.280992	0	0	0.388858	0.101869	-0.359436	0.591278	0.0886354	0	0	-0.0678973	-0.160534	0.0640136	-0.0742819	-0.166302	0.13238	0.523141	1.19279	0	0	-0.305026	-0.264294	0.402274	0.688769	0.695575	0	0
2.02	-2.01058	1.41048	-2.77448	0.647581	1.81368	0.932298	0.0696464	-0.320417	-0.0983937	1.20643	-0.310101	0	0	0.36674	0.115487	-0.343801	0.58093	0.0939102	0	0	-0.0725491	-0.164089	0.0503748	-0.0738937	-0.164991	0.142158	0.510136	1.19036	0	0	-0.298994	-0.270188	0.398919	0.693179	0.700833	0	0
2.03	-2.03061	1.40755	-2.74333	0.646032	1.82454	0.93481	0.0895259	-0.323124	-0.0973229	1.23936	-0.314638	0	0	0.34276	0.127681	-0.327122	0.568758	0.0991942	0	0	-0.0774022	-0.166348	0.0364447	-0.0772186	-0.166668	0.164246	0.507558	1.15059	0	0	-0.293251	-0.272767	0.384527	0.693769	0.737822	0	0
2.04	-2.054	1.40591	-2.7093	0.644658	1.83537	0.937513	0.107594	-0.321785	-0.094853	1.26641	-0.299922	0	0	0.317129	0.136909	-0.312143	0.554486	0.103919	0	0	-0.0825584	-0.166756	0.0265055	-0.0810017	-0.159563	0.135153	0.496977	1.20447	0	0	-0.283282	-0.278278	0.385614	0.694861	0.747102	0	0
2.05	-2.07986	1.40576	-2.67332	0.643289	1.8461	0.9402	0.124865	-0.318699	-0.0938832	1.28815	-0.275381	0	0	0.291113	0.142883	-0.299867	0.539618	0.108899	0	0	-0.0870712	-0.165111	0.0163535	-0.087742	-0.157957	0.130235	0.496939	1.2062	0	0	-0.273621	-0.282708	0.386327	0.69643	0.752195	0	0
2.06	-2.10278	1.40712	-2.64042	0.641944	1.85669	0.942802	0.14282	-0.313195	-0.0928056	1.30495	-0.247905	0	0	0.26607	0.146269	-0.289593	0.524178	0.113567	0	0	-0.0901267	-0.162067	0.00682627	-0.0931564	-0.1571	0.129515	0.494036	1.20633	0	0	-0.263266	-0.286852	0.386896	0.697527	0.758265	0	0
2.07	-2.1231	1.40836	-2.60956	0.640512	1.86712	0.945283	0.160704	-0.310013	-0.0952599	1.31743	-0.22149	0	0	0.240762	0.149607	-0.279457	0.506862	0.117247	0	0	-0.0931609	-0.158807	-0.00248352	-0.10288	-0.155506	0.118742	0.500173	1.20556	0	0	-0.251773	-0.290606	0.386157	0.698087	0.768321	0	0
2.08	-2.13767	1.41022	-2.58397	0.639025	1.87733	0.947574	0.179416	-0.304408	-0.0953196	1.32521	-0.197982	0	0	0.217203	0.152132	-0.269645	0.489845	0.12052	0	0	-0.0952551	-0.155498	-0.0122026	-0.111902	-0.154221	0.111388	0.505505	1.20026	0	0	-0.240352	-0.293445	0.383004	0.699419	0.775806	0	0
2.09	-2.1476	1.41202	-2.56325	0.637485	1.88746	0.949696	0.198336	-0.299157	-0.0950722	1.32834	-0.178638	0	0	0.19432	0.154701	-0.260392	0.472351	0.123303	0	0	-0.0965607	-0.152663	-0.0216879	-0.119143	-0.154007	0.109877	0.507635	1.19253	0	0	-0.228977	-0.295713	0.379811	0.701751	0.779237	0	0
